<svg xmlns="http://www.w3.org/2000/svg" viewBox="0 0 674.66 109.44"><defs><style>.a{fill:#f39200;}.b{fill:#fff;}</style></defs><title>logo-w</title><path class="a" d="M205.94,51.9S175.07,44.14,158,36.56s-64.29-19.7-89.09-19.7S12.8,21.59,4.47,22.93C-3,24.13,1,26.44,1.78,26.53c1.49.17,28.6.58,35.4,1.2,9.42.85,50.17,7.32,83.12,29.66,0,0-19.69,14.08-27,22.73S79,101.34,77.67,105.54s-.6,4.19,1.71,2.91S122.27,82,136.82,76.26s30.73-14,69.76-22.08C208,54,209.84,53,205.94,51.9Z" transform="translate(0)"/><path class="a" d="M169,34.75l27.31,9.76a3.28,3.28,0,0,0,2.73-.94s11.9-11,14.39-33.82c.34-3.51.68-8,0-9.24-.26-.17-.69.6-1,1.28s-19.6,21.15-37.68,28.85c-2.31.86-4,1.8-5.12,2.23C169,33.11,168,34.41,169,34.75Z" transform="translate(0)"/><path class="b" d="M486,52.3a95,95,0,0,0-14.24,11.47H458.71l27-62.61h11.33l26.09,62.61H510.33L502.6,45.31S493.1,47.77,486,52.3Zm14.9-11.92L494.79,26c-.68-1.83-2.75-6.74-3.77-9.32h-.19c-.86,2.39-3.34,8.23-3.68,9.23l-8.23,20.21s9.18-3.1,12-3.88C494.54,41.28,500.93,40.38,500.93,40.38Z" transform="translate(0)"/><path class="b" d="M248.59,89.77v19.45H245.4V96.66c0-.5,0-1,.08-1.63l-5.88,11a1.37,1.37,0,0,1-1.28.79h-.51a1.36,1.36,0,0,1-1.27-.79L230.59,95c0,.3,0,.59.07.87s0,.56,0,.8v12.56H227.5V89.77h3.14a1.38,1.38,0,0,1,.32.07.87.87,0,0,1,.26.18,1.77,1.77,0,0,1,.22.32l5.82,10.8c.15.29.3.58.43.89s.25.62.38.94q.18-.49.39-1c.13-.31.28-.61.43-.9l5.74-10.77a1.77,1.77,0,0,1,.23-.32.87.87,0,0,1,.26-.18,1.5,1.5,0,0,1,.32-.07h3.15Z" transform="translate(0)"/><path class="b" d="M275,109.22h-2.8a1.24,1.24,0,0,1-.77-.23,1.5,1.5,0,0,1-.44-.59l-1.46-4h-8.05l-1.46,4a1.3,1.3,0,0,1-.41.57,1.17,1.17,0,0,1-.77.25H256l7.65-19.45h3.69Zm-6.39-7.34-2.37-6.47q-.18-.43-.36-1c-.13-.4-.26-.83-.38-1.28-.12.45-.24.88-.36,1.28s-.25.75-.37,1l-2.35,6.45Z" transform="translate(0)"/><path class="b" d="M286,97.92h.85a2.13,2.13,0,0,0,.85-.14,1.36,1.36,0,0,0,.57-.45l5.37-6.79a1.93,1.93,0,0,1,.71-.6,2.27,2.27,0,0,1,.93-.17h3.12l-6.55,8.09a3.68,3.68,0,0,1-1.19,1,2.54,2.54,0,0,1,.8.45,3.39,3.39,0,0,1,.67.76l6.76,9.1h-3.19a2,2,0,0,1-1-.18,1.49,1.49,0,0,1-.53-.53l-5.5-7.18a1.36,1.36,0,0,0-.6-.51,2.43,2.43,0,0,0-1-.15H286v8.55h-3.62V89.77H286Z" transform="translate(0)"/><path class="b" d="M309.82,92.65V98h6.8v2.79h-6.8v5.5h8.63v2.89H306.19V89.77h12.26v2.88Z" transform="translate(0)"/><path class="b" d="M354.72,109.22h-2.8a1.24,1.24,0,0,1-.77-.23,1.5,1.5,0,0,1-.44-.59l-1.46-4H341.2l-1.45,4a1.41,1.41,0,0,1-.42.57,1.17,1.17,0,0,1-.77.25h-2.82l7.65-19.45h3.69Zm-6.39-7.34L346,95.41q-.18-.43-.36-1c-.13-.4-.25-.83-.38-1.28-.12.45-.24.88-.36,1.28s-.25.75-.37,1l-2.35,6.45Z" transform="translate(0)"/><path class="b" d="M372.47,93.31a1.32,1.32,0,0,1-.34.41.73.73,0,0,1-.45.13,1.15,1.15,0,0,1-.61-.21l-.79-.47a7.8,7.8,0,0,0-1.07-.46,4.48,4.48,0,0,0-1.45-.21,4.28,4.28,0,0,0-1.31.18,2.77,2.77,0,0,0-.95.51,1.87,1.87,0,0,0-.57.77,2.46,2.46,0,0,0-.19,1,1.67,1.67,0,0,0,.38,1.14,3,3,0,0,0,1,.78,8.81,8.81,0,0,0,1.44.58c.53.17,1.09.35,1.65.55a13.9,13.9,0,0,1,1.65.67,5.78,5.78,0,0,1,1.44,1,4.38,4.38,0,0,1,1,1.43,4.92,4.92,0,0,1,.38,2.06,6.73,6.73,0,0,1-.45,2.47,5.72,5.72,0,0,1-1.32,2,6.17,6.17,0,0,1-2.11,1.35,8,8,0,0,1-2.87.49,9.31,9.31,0,0,1-1.83-.18,10.83,10.83,0,0,1-1.73-.52,9.89,9.89,0,0,1-1.55-.81,6.72,6.72,0,0,1-1.29-1.05l1.06-1.73a1.2,1.2,0,0,1,.35-.32.94.94,0,0,1,.46-.13,1.24,1.24,0,0,1,.72.28c.26.18.57.39.93.61a7.4,7.4,0,0,0,1.26.61,4.68,4.68,0,0,0,1.73.28,3.57,3.57,0,0,0,2.39-.73,2.64,2.64,0,0,0,.85-2.11,2,2,0,0,0-.38-1.25,3.08,3.08,0,0,0-1-.81,7.33,7.33,0,0,0-1.44-.56l-1.64-.5a14.33,14.33,0,0,1-1.64-.65,5.1,5.1,0,0,1-1.44-1,4.57,4.57,0,0,1-1-1.51,5.89,5.89,0,0,1-.38-2.24,5.32,5.32,0,0,1,.42-2.07A5.49,5.49,0,0,1,363,91.28,5.88,5.88,0,0,1,365,90a7.16,7.16,0,0,1,2.71-.47,9.31,9.31,0,0,1,3.18.53,7.23,7.23,0,0,1,2.47,1.51Z" transform="translate(0)"/><path class="b" d="M385.88,109.22h-3.63V89.77h3.63Z" transform="translate(0)"/><path class="b" d="M412.27,109.22h-2.8a1.23,1.23,0,0,1-.76-.23,1.53,1.53,0,0,1-.45-.59l-1.45-4h-8.06l-1.45,4a1.25,1.25,0,0,1-.42.57,1.14,1.14,0,0,1-.76.25h-2.83L401,89.77h3.68Zm-6.39-7.34-2.36-6.47c-.12-.29-.24-.63-.37-1s-.25-.83-.37-1.28c-.12.45-.24.88-.37,1.28s-.24.75-.36,1l-2.35,6.45Z" transform="translate(0)"/><path class="b" d="M434.32,92.65V98h6.81v2.79h-6.81v5.5H443v2.89H430.69V89.77H443v2.88Z" transform="translate(0)"/><path class="b" d="M468.2,109.22h-2.8a1.21,1.21,0,0,1-.76-.23,1.53,1.53,0,0,1-.45-.59l-1.45-4h-8.06l-1.45,4a1.25,1.25,0,0,1-.42.57,1.14,1.14,0,0,1-.76.25h-2.83l7.66-19.45h3.68Zm-6.39-7.34-2.36-6.47c-.12-.29-.24-.63-.37-1s-.25-.83-.37-1.28c-.12.45-.24.88-.37,1.28s-.24.75-.36,1l-2.35,6.45Z" transform="translate(0)"/><path class="b" d="M486,93.31a1.21,1.21,0,0,1-.35.41.73.73,0,0,1-.45.13,1.17,1.17,0,0,1-.61-.21l-.79-.47a7.3,7.3,0,0,0-1.07-.46,5,5,0,0,0-2.76,0,2.87,2.87,0,0,0-.95.51,2.07,2.07,0,0,0-.57.77,2.64,2.64,0,0,0-.19,1,1.68,1.68,0,0,0,.39,1.14,3,3,0,0,0,1,.78,8.81,8.81,0,0,0,1.44.58c.54.17,1.09.35,1.66.55a14.62,14.62,0,0,1,1.65.67,5.78,5.78,0,0,1,1.44,1,4.53,4.53,0,0,1,1,1.43,5.09,5.09,0,0,1,.38,2.06,6.73,6.73,0,0,1-.45,2.47,5.72,5.72,0,0,1-1.32,2,6.31,6.31,0,0,1-2.12,1.35,7.93,7.93,0,0,1-2.86.49,9.31,9.31,0,0,1-1.83-.18,10.83,10.83,0,0,1-1.73-.52,10.46,10.46,0,0,1-1.56-.81,7.39,7.39,0,0,1-1.29-1.05l1.07-1.73a1.08,1.08,0,0,1,.35-.32.9.9,0,0,1,.45-.13,1.24,1.24,0,0,1,.73.28c.26.18.57.39.93.61a7.66,7.66,0,0,0,1.25.61,4.72,4.72,0,0,0,1.73.28,3.62,3.62,0,0,0,2.4-.73,2.67,2.67,0,0,0,.85-2.11,1.93,1.93,0,0,0-.39-1.25,2.94,2.94,0,0,0-1-.81A7.58,7.58,0,0,0,481,101c-.54-.16-1.09-.32-1.64-.5a14.48,14.48,0,0,1-1.65-.65,5.2,5.2,0,0,1-1.43-1,4.42,4.42,0,0,1-1-1.51,5.7,5.7,0,0,1-.38-2.24,5.37,5.37,0,0,1,1.65-3.86,6,6,0,0,1,2-1.25,7.22,7.22,0,0,1,2.72-.47,9.25,9.25,0,0,1,3.17.53,7.27,7.27,0,0,1,2.48,1.51Z" transform="translate(0)"/><path class="b" d="M503.64,101.69v7.53H500v-7.53L493,89.77h3.19a1.18,1.18,0,0,1,.75.23,2.07,2.07,0,0,1,.46.58l3.55,6.5c.21.38.39.74.55,1.09s.29.68.42,1c.12-.34.25-.68.4-1s.33-.71.53-1.09l3.54-6.5a1.6,1.6,0,0,1,.44-.55,1.12,1.12,0,0,1,.75-.26h3.2Z" transform="translate(0)"/><path class="b" d="M532.55,92.65v5.76h7.29v2.89h-7.29v7.92h-3.63V89.77h12.27v2.88Z" transform="translate(0)"/><path class="b" d="M567.9,99.5a10.92,10.92,0,0,1-.7,4,9.36,9.36,0,0,1-2,3.15,9.09,9.09,0,0,1-3.11,2.08,11.2,11.2,0,0,1-8.06,0,9.11,9.11,0,0,1-5.12-5.23,11.4,11.4,0,0,1,0-7.92A9.09,9.09,0,0,1,554,90.3a10.67,10.67,0,0,1,4-.74,10.86,10.86,0,0,1,2.78.34,9.58,9.58,0,0,1,2.39,1,9,9,0,0,1,3.43,3.52,9.82,9.82,0,0,1,.93,2.39A11.45,11.45,0,0,1,567.9,99.5Zm-3.7,0a8.79,8.79,0,0,0-.43-2.87,6,6,0,0,0-1.22-2.16,5.1,5.1,0,0,0-1.93-1.36,7.23,7.23,0,0,0-5.13,0,5.18,5.18,0,0,0-1.93,1.36,5.87,5.87,0,0,0-1.23,2.16,9.79,9.79,0,0,0,0,5.74,5.83,5.83,0,0,0,1.23,2.15,5.27,5.27,0,0,0,1.93,1.35,7.23,7.23,0,0,0,5.13,0,5.19,5.19,0,0,0,1.93-1.35,6,6,0,0,0,1.22-2.15A8.87,8.87,0,0,0,564.2,99.5Z" transform="translate(0)"/><path class="b" d="M591.66,109.22h-3.27a1.45,1.45,0,0,1-1.35-.72L583,102.27a1.4,1.4,0,0,0-.5-.5,1.79,1.79,0,0,0-.82-.15h-1.54v7.6h-3.62V89.77h5.93a12.51,12.51,0,0,1,3.4.41,6.77,6.77,0,0,1,2.33,1.15,4.49,4.49,0,0,1,1.33,1.77,5.78,5.78,0,0,1,.43,2.27,5.65,5.65,0,0,1-.29,1.85,5.24,5.24,0,0,1-.83,1.59,5.53,5.53,0,0,1-1.34,1.25,7,7,0,0,1-1.83.85,3,3,0,0,1,.65.48,3.52,3.52,0,0,1,.54.65ZM582.35,99a5.61,5.61,0,0,0,1.78-.26,3.3,3.3,0,0,0,1.25-.71,2.77,2.77,0,0,0,.73-1.06,3.58,3.58,0,0,0,.25-1.36,2.78,2.78,0,0,0-1-2.28,4.65,4.65,0,0,0-3-.79h-2.31V99Z" transform="translate(0)"/><path class="b" d="M618.33,101.69v7.53h-3.61v-7.53l-7.08-11.92h3.18a1.14,1.14,0,0,1,.75.23,1.91,1.91,0,0,1,.46.58l3.56,6.5c.2.38.38.74.54,1.09a11,11,0,0,1,.42,1,10.86,10.86,0,0,1,.41-1c.15-.35.32-.71.52-1.09l3.54-6.5a1.87,1.87,0,0,1,.44-.55,1.13,1.13,0,0,1,.76-.26h3.2Z" transform="translate(0)"/><path class="b" d="M650.21,99.5a10.92,10.92,0,0,1-.71,4,9.34,9.34,0,0,1-2,3.15,9.19,9.19,0,0,1-3.11,2.08,11.2,11.2,0,0,1-8.06,0,9.09,9.09,0,0,1-3.11-2.08,9.23,9.23,0,0,1-2-3.15,11.25,11.25,0,0,1,0-7.92,9.09,9.09,0,0,1,5.12-5.24,10.62,10.62,0,0,1,4-.74,10.88,10.88,0,0,1,2.79.34,9.58,9.58,0,0,1,2.39,1A9,9,0,0,1,649,94.39a9.8,9.8,0,0,1,.92,2.39A11.45,11.45,0,0,1,650.21,99.5Zm-3.7,0a8.79,8.79,0,0,0-.43-2.87,6.31,6.31,0,0,0-1.22-2.16,5.18,5.18,0,0,0-1.93-1.36,7.23,7.23,0,0,0-5.13,0,5.21,5.21,0,0,0-1.94,1.36,6.16,6.16,0,0,0-1.23,2.16,9.79,9.79,0,0,0,0,5.74,6.12,6.12,0,0,0,1.23,2.15,5.3,5.3,0,0,0,1.94,1.35,7.23,7.23,0,0,0,5.13,0,5.27,5.27,0,0,0,1.93-1.35,6.26,6.26,0,0,0,1.22-2.15A8.87,8.87,0,0,0,646.51,99.5Z" transform="translate(0)"/><path class="b" d="M666.6,106.3a4.67,4.67,0,0,0,1.88-.35,3.77,3.77,0,0,0,1.39-1,4.25,4.25,0,0,0,.87-1.53,6.35,6.35,0,0,0,.3-2V89.77h3.62v11.65a8.8,8.8,0,0,1-.56,3.21,7.18,7.18,0,0,1-1.6,2.54,7.3,7.3,0,0,1-2.53,1.67,9.76,9.76,0,0,1-6.74,0,7.13,7.13,0,0,1-4.14-4.21,9,9,0,0,1-.56-3.21V89.77h3.62v11.64a6.33,6.33,0,0,0,.3,2,4.38,4.38,0,0,0,.88,1.54,3.8,3.8,0,0,0,1.4,1A4.65,4.65,0,0,0,666.6,106.3Z" transform="translate(0)"/><path class="b" d="M230.4,63.77V18.52h6.66a2.68,2.68,0,0,1,2.78,2l.7,3.35a27.18,27.18,0,0,1,2.5-2.43,16.14,16.14,0,0,1,2.77-1.89A15.27,15.27,0,0,1,249,18.28a14.06,14.06,0,0,1,3.73-.46,10.57,10.57,0,0,1,7,2.31,13.92,13.92,0,0,1,4.12,6.15,14,14,0,0,1,2.65-3.86A14.72,14.72,0,0,1,270,19.8a16.6,16.6,0,0,1,4-1.5,19.55,19.55,0,0,1,4.3-.48A18.16,18.16,0,0,1,285,19a12.79,12.79,0,0,1,4.89,3.35,14.79,14.79,0,0,1,3,5.38A23.51,23.51,0,0,1,294,35v28.8H283.06V35c0-2.88-.64-5-1.9-6.5a7,7,0,0,0-5.56-2.19,8.3,8.3,0,0,0-3.1.58A7.35,7.35,0,0,0,270,28.51a7.59,7.59,0,0,0-1.7,2.71,10.61,10.61,0,0,0-.61,3.75v28.8H256.73V35q0-4.54-1.83-6.61a6.75,6.75,0,0,0-5.36-2.08,8.79,8.79,0,0,0-4.43,1.17,14.9,14.9,0,0,0-3.82,3.2V63.77Z" transform="translate(0)"/><path class="b" d="M346.34,18.52,321.69,76.2A4.15,4.15,0,0,1,320.43,78a3.88,3.88,0,0,1-2.36.59H310l8.47-18.17L300.12,18.52h9.57a3,3,0,0,1,2,.62,3.92,3.92,0,0,1,1.08,1.41L322.39,44a21,21,0,0,1,.82,2.38c.22.8.43,1.61.64,2.43.26-.82.53-1.64.79-2.45s.56-1.61.89-2.4l9.08-23.42a3.11,3.11,0,0,1,1.17-1.45,3,3,0,0,1,1.83-.58Z" transform="translate(0)"/><path class="b" d="M393,9.75H373.81v54H362v-54H342.72V0H393Z" transform="translate(0)"/><path class="b" d="M453.41,63.77H442.7a4.71,4.71,0,0,1-4.41-2.38L424.88,41a4.64,4.64,0,0,0-1.65-1.63,5.69,5.69,0,0,0-2.67-.49h-5.07V63.77H403.63V0h19.44a40.69,40.69,0,0,1,11.14,1.34,21.38,21.38,0,0,1,7.63,3.78,14.78,14.78,0,0,1,4.39,5.79,19.11,19.11,0,0,1,1.41,7.44,19.3,19.3,0,0,1-.95,6.08A17.64,17.64,0,0,1,444,29.64a18.84,18.84,0,0,1-4.41,4.1,22.2,22.2,0,0,1-6,2.77,12.51,12.51,0,0,1,2.12,1.57,11.42,11.42,0,0,1,1.76,2.14ZM422.9,30.34a18.31,18.31,0,0,0,5.84-.84,11.36,11.36,0,0,0,4.1-2.31,9.32,9.32,0,0,0,2.41-3.51,12.1,12.1,0,0,0,.79-4.45,9.08,9.08,0,0,0-3.2-7.46q-3.19-2.6-9.77-2.6h-7.58V30.34Z" transform="translate(0)"/><path class="b" d="M575.57,0,549.82,63.77H539.1L513.35,0h9.52a4,4,0,0,1,2.52.75,4.63,4.63,0,0,1,1.45,1.94l15,38.9c.5,1.26,1,2.65,1.43,4.16s.89,3.1,1.3,4.74c.36-1.64.74-3.22,1.15-4.74a39,39,0,0,1,1.37-4.16l15-38.9A4.06,4.06,0,0,1,563.47.84,3.88,3.88,0,0,1,566,0Z" transform="translate(0)"/><path class="b" d="M596.3,9.44V27.12h22.31v9.13H596.3v18h28.31v9.48H584.39V0h40.22V9.44Z" transform="translate(0)"/><path class="b" d="M674.66,54v9.79H637.31V0h11.86V54Z" transform="translate(0)"/></svg>